<svg width="22" height="12" viewBox="0 0 22 12" fill="none" xmlns="http://www.w3.org/2000/svg">
<path d="M21.7076 1.70757L11.7076 11.7076C11.6147 11.8005 11.5044 11.8743 11.383 11.9246C11.2616 11.975 11.1315 12.0009 11.0001 12.0009C10.8687 12.0009 10.7385 11.975 10.6171 11.9246C10.4957 11.8743 10.3854 11.8005 10.2926 11.7076L0.292568 1.70757C0.104927 1.51993 -0.000488281 1.26543 -0.000488281 1.00007C-0.000488281 0.734704 0.104927 0.480208 0.292568 0.292567C0.480208 0.104927 0.734704 -0.000488281 1.00007 -0.000488281C1.26543 -0.000488281 1.51993 0.104927 1.70757 0.292567L11.0001 9.58632L20.2926 0.292567C20.3855 0.199657 20.4958 0.125957 20.6172 0.0756741C20.7386 0.0253914 20.8687 -0.000488281 21.0001 -0.000488281C21.1315 -0.000488281 21.2616 0.0253914 21.383 0.0756741C21.5044 0.125957 21.6147 0.199657 21.7076 0.292567C21.8005 0.385477 21.8742 0.495778 21.9245 0.617171C21.9747 0.738564 22.0006 0.868673 22.0006 1.00007C22.0006 1.13146 21.9747 1.26157 21.9245 1.38296C21.8742 1.50436 21.8005 1.61466 21.7076 1.70757Z" fill="white"/>
</svg>
